<svg width="223" height="73" viewBox="0 0 223 73" fill="none" xmlns="http://www.w3.org/2000/svg">
<path d="M35.9742 29.1406V59H29.8219L17.8248 38.9844V59H11.6725V29.1406H17.8248L29.8424 49.1768V29.1406H35.9742Z" fill="white"/>
<path d="M25.8955 22.6445V30.3145L21.6709 30.3555V23.916C21.6709 22.7813 21.5273 21.8516 21.2402 21.127C20.9395 20.4023 20.5088 19.8623 19.9482 19.5068C19.374 19.1377 18.6768 18.9531 17.8564 18.9531C16.9268 18.9531 16.1748 19.1309 15.6006 19.4863C15.0264 19.8281 14.6094 20.3682 14.3496 21.1064C14.0898 21.8311 13.96 22.7676 13.96 23.916V28.1816H39V34.334H9.14062V23.916C9.14062 22.1797 9.30469 20.6279 9.63281 19.2607C9.96094 17.8799 10.46 16.7109 11.1299 15.7539C11.7998 14.7969 12.6475 14.0654 13.6729 13.5596C14.6846 13.0537 15.8877 12.8008 17.2822 12.8008C18.5127 12.8008 19.6475 13.0811 20.6865 13.6416C21.7256 14.1885 22.5732 15.0566 23.2295 16.2461C23.8857 17.4219 24.248 18.96 24.3164 20.8604L25.8955 22.6445ZM39 22.9111V31.9961L34.2012 29.5967V22.9111C34.2012 21.8311 34.0303 20.9492 33.6885 20.2656C33.333 19.582 32.8545 19.0762 32.2529 18.748C31.6514 18.4199 30.9609 18.2559 30.1816 18.2559C29.3066 18.2559 28.5478 18.4063 27.9053 18.707C27.2627 18.9941 26.7705 19.459 26.4287 20.1016C26.0732 20.7441 25.8955 21.5918 25.8955 22.6445V28.5713L21.6709 28.5303V21.1475L23.332 19.7324C23.3047 17.9141 23.626 16.4512 24.2959 15.3438C24.9521 14.2227 25.8066 13.4092 26.8594 12.9033C27.9121 12.3838 29.04 12.124 30.2432 12.124C32.1572 12.124 33.7705 12.541 35.083 13.375C36.3818 14.209 37.3594 15.4326 38.0156 17.0459C38.6719 18.6455 39 20.6006 39 22.9111Z" fill="white"/>
<path d="M51.6635 37.7461V43.2246L48.6459 43.2539V38.6543C48.6459 37.8438 48.5433 37.1797 48.3383 36.6621C48.1234 36.1445 47.8158 35.7588 47.4154 35.5049C47.0052 35.2412 46.5072 35.1094 45.9213 35.1094C45.2572 35.1094 44.7201 35.2363 44.3099 35.4902C43.8998 35.7344 43.6019 36.1201 43.4164 36.6475C43.2308 37.165 43.1381 37.834 43.1381 38.6543V41.7012H61.0238V46.0957H39.6957V38.6543C39.6957 37.4141 39.8129 36.3057 40.0472 35.3291C40.2816 34.3428 40.6381 33.5078 41.1166 32.8242C41.5951 32.1406 42.2006 31.6182 42.933 31.2568C43.6556 30.8955 44.515 30.7148 45.5111 30.7148C46.39 30.7148 47.2006 30.915 47.9427 31.3154C48.6849 31.7061 49.2904 32.3262 49.7592 33.1758C50.2279 34.0156 50.4867 35.1143 50.5355 36.4717L51.6635 37.7461ZM61.0238 37.9365V44.4258L57.5961 42.7119V37.9365C57.5961 37.165 57.474 36.5352 57.2299 36.0469C56.976 35.5586 56.6342 35.1973 56.2045 34.9629C55.7748 34.7285 55.2816 34.6113 54.725 34.6113C54.1 34.6113 53.558 34.7188 53.099 34.9336C52.64 35.1387 52.2885 35.4707 52.0443 35.9297C51.7904 36.3887 51.6635 36.9941 51.6635 37.7461V41.9795L48.6459 41.9502V36.6768L49.8324 35.666C49.8129 34.3672 50.0424 33.3223 50.5209 32.5313C50.9896 31.7305 51.6 31.1494 52.3519 30.7881C53.1039 30.417 53.9095 30.2314 54.7689 30.2314C56.1361 30.2314 57.2885 30.5293 58.226 31.125C59.1537 31.7207 59.8519 32.5947 60.3207 33.7471C60.7894 34.8896 61.0238 36.2861 61.0238 37.9365Z" fill="white"/>
<path d="M72.0596 43.2061V31.1504H76.2783V47H72.3086L72.0596 43.2061ZM72.5283 39.9541L73.7734 39.9248C73.7734 40.9795 73.6514 41.9609 73.4072 42.8691C73.1631 43.7676 72.7969 44.5488 72.3086 45.2129C71.8203 45.8672 71.2051 46.3799 70.4629 46.751C69.7207 47.1123 68.8467 47.293 67.8408 47.293C67.0693 47.293 66.3564 47.1855 65.7021 46.9707C65.0576 46.7461 64.501 46.3994 64.0322 45.9307C63.5732 45.4521 63.2119 44.8418 62.9482 44.0996C62.6943 43.3477 62.5674 42.4443 62.5674 41.3896V31.1504H66.7861V41.4189C66.7861 41.8877 66.8398 42.2832 66.9473 42.6055C67.0645 42.9277 67.2256 43.1914 67.4307 43.3965C67.6357 43.6016 67.875 43.748 68.1484 43.8359C68.4316 43.9238 68.7441 43.9678 69.0859 43.9678C69.9551 43.9678 70.6387 43.792 71.1367 43.4404C71.6445 43.0889 72.001 42.6104 72.2061 42.0049C72.4209 41.3896 72.5283 40.7061 72.5283 39.9541ZM83.7197 34.6074V47H79.501V31.1504H83.4707L83.7197 34.6074ZM88.4951 31.0479L88.4219 34.959C88.2168 34.9297 87.9678 34.9053 87.6748 34.8857C87.3916 34.8564 87.1328 34.8418 86.8984 34.8418C86.3027 34.8418 85.7852 34.9199 85.3457 35.0762C84.916 35.2227 84.5547 35.4424 84.2617 35.7354C83.9785 36.0283 83.7637 36.3848 83.6172 36.8047C83.4805 37.2246 83.4023 37.7031 83.3828 38.2402L82.5332 37.9766C82.5332 36.9512 82.6357 36.0088 82.8408 35.1494C83.0459 34.2803 83.3438 33.5234 83.7344 32.8789C84.1348 32.2344 84.623 31.7363 85.1992 31.3848C85.7754 31.0332 86.4346 30.8574 87.1768 30.8574C87.4111 30.8574 87.6504 30.877 87.8945 30.916C88.1387 30.9453 88.3389 30.9893 88.4951 31.0479ZM100.229 31.1504H104.052V46.4727C104.052 47.918 103.729 49.1436 103.085 50.1494C102.45 51.165 101.562 51.9316 100.419 52.4492C99.2764 52.9766 97.9482 53.2402 96.4346 53.2402C95.7705 53.2402 95.0674 53.1523 94.3252 52.9766C93.5928 52.8008 92.8896 52.5273 92.2158 52.1562C91.5518 51.7852 90.9951 51.3164 90.5459 50.75L92.4062 48.2598C92.8945 48.8262 93.4609 49.2656 94.1055 49.5781C94.75 49.9004 95.4629 50.0615 96.2441 50.0615C97.0059 50.0615 97.6504 49.9199 98.1777 49.6367C98.7051 49.3633 99.1104 48.958 99.3936 48.4209C99.6768 47.8936 99.8184 47.2539 99.8184 46.502V34.8125L100.229 31.1504ZM89.5645 39.2656V38.958C89.5645 37.7471 89.7109 36.6484 90.0039 35.6621C90.3066 34.666 90.7314 33.8115 91.2783 33.0986C91.835 32.3857 92.5088 31.834 93.2998 31.4434C94.0908 31.0527 94.9844 30.8574 95.9805 30.8574C97.0352 30.8574 97.9189 31.0527 98.6318 31.4434C99.3447 31.834 99.9307 32.3906 100.39 33.1133C100.849 33.8262 101.205 34.6709 101.459 35.6475C101.723 36.6143 101.928 37.6738 102.074 38.8262V39.5C101.928 40.6035 101.708 41.6289 101.415 42.5762C101.122 43.5234 100.736 44.3535 100.258 45.0664C99.7793 45.7695 99.1836 46.3164 98.4707 46.707C97.7676 47.0977 96.9277 47.293 95.9512 47.293C94.9746 47.293 94.0908 47.0928 93.2998 46.6924C92.5186 46.292 91.8496 45.7305 91.293 45.0078C90.7363 44.2852 90.3066 43.4355 90.0039 42.459C89.7109 41.4824 89.5645 40.418 89.5645 39.2656ZM93.7832 38.958V39.2656C93.7832 39.9199 93.8467 40.5303 93.9736 41.0967C94.1006 41.6631 94.2959 42.166 94.5596 42.6055C94.833 43.0352 95.1699 43.3721 95.5703 43.6162C95.9805 43.8506 96.4639 43.9678 97.0205 43.9678C97.792 43.9678 98.4219 43.8066 98.9102 43.4844C99.3984 43.1523 99.7646 42.6982 100.009 42.1221C100.253 41.5459 100.395 40.8818 100.434 40.1299V38.2109C100.414 37.5957 100.331 37.0439 100.185 36.5557C100.038 36.0576 99.833 35.6328 99.5693 35.2812C99.3057 34.9297 98.9639 34.6562 98.5439 34.4609C98.124 34.2656 97.626 34.168 97.0498 34.168C96.4932 34.168 96.0098 34.2949 95.5996 34.5488C95.1992 34.793 94.8623 35.1299 94.5889 35.5596C94.3252 35.9893 94.125 36.4971 93.9883 37.083C93.8516 37.6592 93.7832 38.2842 93.7832 38.958ZM114.628 47.293C113.397 47.293 112.294 47.0977 111.317 46.707C110.341 46.3066 109.511 45.7549 108.827 45.0518C108.153 44.3486 107.636 43.5332 107.274 42.6055C106.913 41.668 106.732 40.6719 106.732 39.6172V39.0312C106.732 37.8301 106.903 36.7314 107.245 35.7354C107.587 34.7393 108.075 33.875 108.71 33.1426C109.354 32.4102 110.136 31.8486 111.054 31.458C111.972 31.0576 113.007 30.8574 114.159 30.8574C115.282 30.8574 116.278 31.043 117.147 31.4141C118.017 31.7852 118.744 32.3125 119.33 32.9961C119.926 33.6797 120.375 34.5 120.678 35.457C120.98 36.4043 121.132 37.459 121.132 38.6211V40.3789H108.534V37.5664H116.986V37.2441C116.986 36.6582 116.879 36.1357 116.664 35.6768C116.459 35.208 116.146 34.8369 115.727 34.5635C115.307 34.29 114.77 34.1533 114.115 34.1533C113.559 34.1533 113.08 34.2754 112.68 34.5195C112.279 34.7637 111.952 35.1055 111.698 35.5449C111.454 35.9844 111.269 36.502 111.142 37.0977C111.024 37.6836 110.966 38.3281 110.966 39.0312V39.6172C110.966 40.252 111.054 40.8379 111.229 41.375C111.415 41.9121 111.674 42.376 112.006 42.7666C112.348 43.1572 112.758 43.46 113.236 43.6748C113.725 43.8896 114.276 43.9971 114.892 43.9971C115.653 43.9971 116.361 43.8506 117.016 43.5576C117.68 43.2549 118.251 42.8008 118.729 42.1953L120.78 44.4219C120.448 44.9004 119.994 45.3594 119.418 45.7988C118.852 46.2383 118.168 46.5996 117.367 46.8828C116.566 47.1562 115.653 47.293 114.628 47.293ZM127.753 34.6074V47H123.534V31.1504H127.504L127.753 34.6074ZM132.528 31.0479L132.455 34.959C132.25 34.9297 132.001 34.9053 131.708 34.8857C131.425 34.8564 131.166 34.8418 130.932 34.8418C130.336 34.8418 129.818 34.9199 129.379 35.0762C128.949 35.2227 128.588 35.4424 128.295 35.7354C128.012 36.0283 127.797 36.3848 127.65 36.8047C127.514 37.2246 127.436 37.7031 127.416 38.2402L126.566 37.9766C126.566 36.9512 126.669 36.0088 126.874 35.1494C127.079 34.2803 127.377 33.5234 127.768 32.8789C128.168 32.2344 128.656 31.7363 129.232 31.3848C129.809 31.0332 130.468 30.8574 131.21 30.8574C131.444 30.8574 131.684 30.877 131.928 30.916C132.172 30.9453 132.372 30.9893 132.528 31.0479ZM152.143 25.6719V47H147.748L139.179 32.7031V47H134.784V25.6719H139.179L147.763 39.9834V25.6719H152.143ZM164.257 43.4258V36.3652C164.257 35.8574 164.174 35.4229 164.008 35.0615C163.842 34.6904 163.583 34.4023 163.231 34.1973C162.89 33.9922 162.445 33.8896 161.898 33.8896C161.43 33.8896 161.024 33.9727 160.683 34.1387C160.341 34.2949 160.077 34.5244 159.892 34.8271C159.706 35.1201 159.613 35.4668 159.613 35.8672H155.395C155.395 35.1934 155.551 34.5537 155.863 33.9482C156.176 33.3428 156.63 32.8105 157.226 32.3516C157.821 31.8828 158.529 31.5166 159.35 31.2529C160.18 30.9893 161.107 30.8574 162.133 30.8574C163.363 30.8574 164.457 31.0625 165.414 31.4727C166.371 31.8828 167.123 32.498 167.67 33.3184C168.227 34.1387 168.505 35.1641 168.505 36.3945V43.1768C168.505 44.0459 168.559 44.7588 168.666 45.3154C168.773 45.8623 168.93 46.3408 169.135 46.751V47H164.872C164.667 46.5703 164.511 46.0332 164.403 45.3887C164.306 44.7344 164.257 44.0801 164.257 43.4258ZM164.813 37.3467L164.843 39.7344H162.484C161.928 39.7344 161.444 39.7979 161.034 39.9248C160.624 40.0518 160.287 40.2324 160.023 40.4668C159.76 40.6914 159.564 40.9551 159.438 41.2578C159.32 41.5605 159.262 41.8926 159.262 42.2539C159.262 42.6152 159.345 42.9424 159.511 43.2354C159.677 43.5186 159.916 43.7432 160.229 43.9092C160.541 44.0654 160.907 44.1436 161.327 44.1436C161.962 44.1436 162.514 44.0166 162.982 43.7627C163.451 43.5088 163.812 43.1963 164.066 42.8252C164.33 42.4541 164.467 42.1025 164.477 41.7705L165.59 43.5576C165.434 43.958 165.219 44.373 164.945 44.8027C164.682 45.2324 164.345 45.6377 163.935 46.0186C163.524 46.3896 163.031 46.6973 162.455 46.9414C161.879 47.1758 161.195 47.293 160.404 47.293C159.398 47.293 158.485 47.0928 157.665 46.6924C156.854 46.2822 156.21 45.7207 155.731 45.0078C155.263 44.2852 155.028 43.4648 155.028 42.5469C155.028 41.7168 155.185 40.9795 155.497 40.335C155.81 39.6904 156.269 39.1484 156.874 38.709C157.489 38.2598 158.256 37.9229 159.174 37.6982C160.092 37.4639 161.156 37.3467 162.367 37.3467H164.813ZM179.521 31.1504V34.1387H170.292V31.1504H179.521ZM172.577 27.2393H176.796V42.2246C176.796 42.6836 176.854 43.0352 176.972 43.2793C177.099 43.5234 177.284 43.6943 177.528 43.792C177.772 43.8799 178.08 43.9238 178.451 43.9238C178.715 43.9238 178.949 43.9141 179.154 43.8945C179.369 43.8652 179.55 43.8359 179.696 43.8066L179.711 46.9121C179.35 47.0293 178.959 47.1221 178.539 47.1904C178.119 47.2588 177.655 47.293 177.147 47.293C176.22 47.293 175.409 47.1416 174.716 46.8389C174.032 46.5264 173.505 46.0283 173.134 45.3447C172.763 44.6611 172.577 43.7627 172.577 42.6494V27.2393ZM186.376 31.1504V47H182.143V31.1504H186.376ZM181.879 27.0195C181.879 26.4043 182.094 25.8965 182.523 25.4961C182.953 25.0957 183.529 24.8955 184.252 24.8955C184.965 24.8955 185.536 25.0957 185.966 25.4961C186.405 25.8965 186.625 26.4043 186.625 27.0195C186.625 27.6348 186.405 28.1426 185.966 28.543C185.536 28.9434 184.965 29.1436 184.252 29.1436C183.529 29.1436 182.953 28.9434 182.523 28.543C182.094 28.1426 181.879 27.6348 181.879 27.0195ZM189.188 39.2363V38.9287C189.188 37.7666 189.354 36.6973 189.687 35.7207C190.019 34.7344 190.502 33.8799 191.137 33.1572C191.771 32.4346 192.553 31.873 193.48 31.4727C194.408 31.0625 195.473 30.8574 196.674 30.8574C197.875 30.8574 198.944 31.0625 199.882 31.4727C200.819 31.873 201.605 32.4346 202.24 33.1572C202.885 33.8799 203.373 34.7344 203.705 35.7207C204.037 36.6973 204.203 37.7666 204.203 38.9287V39.2363C204.203 40.3887 204.037 41.458 203.705 42.4443C203.373 43.4209 202.885 44.2754 202.24 45.0078C201.605 45.7305 200.824 46.292 199.896 46.6924C198.969 47.0928 197.904 47.293 196.703 47.293C195.502 47.293 194.433 47.0928 193.495 46.6924C192.567 46.292 191.781 45.7305 191.137 45.0078C190.502 44.2754 190.019 43.4209 189.687 42.4443C189.354 41.458 189.188 40.3887 189.188 39.2363ZM193.407 38.9287V39.2363C193.407 39.9004 193.466 40.5205 193.583 41.0967C193.7 41.6729 193.886 42.1807 194.14 42.6201C194.403 43.0498 194.745 43.3867 195.165 43.6309C195.585 43.875 196.098 43.9971 196.703 43.9971C197.289 43.9971 197.792 43.875 198.212 43.6309C198.632 43.3867 198.969 43.0498 199.223 42.6201C199.477 42.1807 199.662 41.6729 199.779 41.0967C199.906 40.5205 199.97 39.9004 199.97 39.2363V38.9287C199.97 38.2842 199.906 37.6787 199.779 37.1123C199.662 36.5361 199.472 36.0283 199.208 35.5889C198.954 35.1396 198.617 34.7881 198.197 34.5342C197.777 34.2803 197.27 34.1533 196.674 34.1533C196.078 34.1533 195.57 34.2803 195.15 34.5342C194.74 34.7881 194.403 35.1396 194.14 35.5889C193.886 36.0283 193.7 36.5361 193.583 37.1123C193.466 37.6787 193.407 38.2842 193.407 38.9287ZM210.927 34.5342V47H206.708V31.1504H210.663L210.927 34.5342ZM210.312 38.5186H209.169C209.169 37.3467 209.32 36.292 209.623 35.3545C209.926 34.4072 210.351 33.6016 210.897 32.9375C211.444 32.2637 212.094 31.751 212.846 31.3994C213.607 31.0381 214.457 30.8574 215.395 30.8574C216.137 30.8574 216.815 30.9648 217.431 31.1797C218.046 31.3945 218.573 31.7363 219.013 32.2051C219.462 32.6738 219.804 33.2939 220.038 34.0654C220.282 34.8369 220.404 35.7793 220.404 36.8926V47H216.156V36.8779C216.156 36.1748 216.059 35.6279 215.863 35.2373C215.668 34.8467 215.38 34.5732 214.999 34.417C214.628 34.251 214.169 34.168 213.622 34.168C213.056 34.168 212.562 34.2803 212.143 34.5049C211.732 34.7295 211.391 35.042 211.117 35.4424C210.854 35.833 210.653 36.292 210.517 36.8193C210.38 37.3467 210.312 37.9131 210.312 38.5186Z" fill="white"/>
<path d="M9.00647 10C9.00647 4.47715 13.4836 0 19.0065 0H29.0281C34.5509 0 39.0281 4.47715 39.0281 10H9.00647Z" fill="white"/>
<path d="M39.0281 63C39.0281 68.5228 34.551 73 29.0281 73H19.0065C13.4837 73 9.00652 68.5228 9.00652 63H39.0281Z" fill="white"/>
</svg>
