<svg width="100" height="100" viewBox="0 0 100 100" fill="none" xmlns="http://www.w3.org/2000/svg">
  <circle cx="50" cy="50" r="50" fill="#059713" />
  <path d="M88 23.5904H77.3913C70.0412 15.8942 61.0487 12 50.5 12C39.9513 12 30.955 15.8942 23.6088 23.5904H13C14.605 26.0135 16.1012 31.3212 16.7237 35.3596C14.3193 40.2841 13.0132 46.2718 13 52.4308C13 68.3365 21.4113 81.2769 31.75 81.2769C36.5318 81.264 41.1274 78.4239 44.5863 73.3442L50.5 87L56.4137 73.35C59.872 78.4318 64.4677 81.2739 69.25 81.2885C79.5888 81.2885 88 68.3481 88 52.4423C88 46.0269 86.5863 40.1538 84.2763 35.3654C84.8988 31.3269 86.395 26.0192 88 23.5962V23.5904ZM31.75 72.0519C24.7188 72.0519 19 63.2538 19 52.4365C19 41.6192 24.7188 32.8212 31.75 32.8212C38.7812 32.8212 44.5 41.6192 44.5 52.4365C44.5 63.2538 38.7812 72.0519 31.75 72.0519ZM50.5 52.4365C50.4937 45.7816 48.9942 39.3341 46.2551 34.1835C43.5159 29.0328 39.705 25.4948 35.4663 24.1673C39.9813 21.8308 44.9875 20.6538 50.5 20.6538C56.0125 20.6538 61.0187 21.8308 65.5337 24.1731C61.2963 25.5002 57.4863 29.0365 54.7473 34.1848C52.0083 39.3331 50.5081 45.7779 50.5 52.4308V52.4365ZM69.25 72.0519C62.2188 72.0519 56.5 63.2538 56.5 52.4365C56.5 41.6192 62.2188 32.8212 69.25 32.8212C76.2812 32.8212 82 41.6192 82 52.4365C82 63.2538 76.2812 72.0519 69.25 72.0519ZM31.75 40.0385C27.3063 40.0385 23.6875 45.6 23.6875 52.4423C23.6875 59.2846 27.3063 64.8462 31.75 64.8462C36.1938 64.8462 39.8125 59.2846 39.8125 52.4423C39.8125 45.6 36.1938 40.0385 31.75 40.0385ZM31.75 56.1404C31.1035 56.1404 30.4835 55.7453 30.0264 55.042C29.5693 54.3388 29.3125 53.3849 29.3125 52.3904C29.3125 51.3958 29.5693 50.442 30.0264 49.7387C30.4835 49.0355 31.1035 48.6404 31.75 48.6404C32.3965 48.6404 33.0165 49.0355 33.4736 49.7387C33.9307 50.442 34.1875 51.3958 34.1875 52.3904C34.1875 53.3849 33.9307 54.3388 33.4736 55.042C33.0165 55.7453 32.3965 56.1404 31.75 56.1404ZM69.25 40.0385C64.8063 40.0385 61.1875 45.6 61.1875 52.4423C61.1875 59.2846 64.8063 64.8462 69.25 64.8462C73.6937 64.8462 77.3125 59.2846 77.3125 52.4423C77.3125 45.6 73.6937 40.0385 69.25 40.0385ZM69.25 56.1404C68.6035 56.1404 67.9835 55.7453 67.5264 55.042C67.0693 54.3388 66.8125 53.3849 66.8125 52.3904C66.8125 51.3958 67.0693 50.442 67.5264 49.7387C67.9835 49.0355 68.6035 48.6404 69.25 48.6404C69.8965 48.6404 70.5165 49.0355 70.9736 49.7387C71.4307 50.442 71.6875 51.3958 71.6875 52.3904C71.6875 53.3849 71.4307 54.3388 70.9736 55.042C70.5165 55.7453 69.8965 56.1404 69.25 56.1404Z" fill="white" />
</svg>